<svg xmlns="http://www.w3.org/2000/svg" width="178.065" height="106.608" viewBox="0 0 178.065 106.608">
  <g id="layer1" transform="translate(-1.967 -1.872)">
    <g id="g10305" transform="translate(1.967 1.872)">
      <path id="path2268" d="M227.4,55.176a53.29,53.29,0,0,1-106.58.027v-.027a53.29,53.29,0,1,1,106.58-.027Z" transform="translate(-49.338 -1.872)" fill="#f90"/>
      <path id="path1350" d="M54.914,1.895a53.291,53.291,0,1,0,36.2,92.7l0,0h.011a53.79,53.79,0,0,0,5.41-5.706H85.617a52.046,52.046,0,0,1-3.973-5.489h18.83a53.375,53.375,0,0,0,3.1-5.706H78.535a52.562,52.562,0,0,1-2.227-5.6h29.5a53.526,53.526,0,0,0,1.514-28.314H74.743a53.134,53.134,0,0,1,1.52-5.6h29.508a53.3,53.3,0,0,0-2.3-5.706H78.532a51.129,51.129,0,0,1,3.058-5.6h18.816a53.406,53.406,0,0,0-4.136-5.706H85.779a49.458,49.458,0,0,1,5.346-5.383A53.1,53.1,0,0,0,55.257,1.895Z" transform="translate(-1.967 -1.881)" fill="#c00"/>
      <path id="use9412" d="M288,136.82a1.771,1.771,0,0,1,.847.223,1.572,1.572,0,0,1,.644.639,1.725,1.725,0,0,1,0,1.72,1.6,1.6,0,0,1-.638.639,1.741,1.741,0,0,1-1.714,0,1.63,1.63,0,0,1-.639-.639,1.729,1.729,0,0,1,0-1.72,1.6,1.6,0,0,1,.644-.639,1.787,1.787,0,0,1,.849-.223m0,.286a1.472,1.472,0,0,0-.707.187,1.32,1.32,0,0,0-.536.534,1.43,1.43,0,0,0-.2.718,1.461,1.461,0,0,0,.189.715,1.381,1.381,0,0,0,.534.532,1.443,1.443,0,0,0,1.43,0,1.363,1.363,0,0,0,.532-.532,1.457,1.457,0,0,0,.188-.715,1.438,1.438,0,0,0-.193-.718,1.31,1.31,0,0,0-.538-.534,1.444,1.444,0,0,0-.7-.187m-.755,2.391v-1.854h.639a1.487,1.487,0,0,1,.472.053.456.456,0,0,1,.233.179.478.478,0,0,1,.087.271.489.489,0,0,1-.146.354.571.571,0,0,1-.384.169.539.539,0,0,1,.159.1,2.031,2.031,0,0,1,.274.367l.226.363h-.364l-.164-.292a1.5,1.5,0,0,0-.313-.432.391.391,0,0,0-.239-.063h-.176v.788h-.3m.3-1.045h.363a.585.585,0,0,0,.354-.078.253.253,0,0,0,.1-.206.243.243,0,0,0-.045-.147.28.28,0,0,0-.128-.1.929.929,0,0,0-.3-.033h-.339v.561" transform="translate(-115.282 -55.657)" fill="#fcb340"/>
    </g>
    <g id="g16480" transform="translate(5.366 41.414)">
      <g id="g13802" transform="translate(0 1.123)">
        <path id="path13804" d="M127.905,83.375l.71-4.824c-.388,0-.958.168-1.462.168-1.975,0-2.222-1.056-2.067-1.827l1.946-9.7h3l.619-5.475h-2.83L128.4,58.4h-5.919c-.125.125-3.349,18.658-3.349,20.916,0,3.341,1.875,4.828,4.52,4.8A14.9,14.9,0,0,0,127.905,83.375Z" transform="translate(-60.329 -55.448)" fill="#006"/>
        <path id="path13806" d="M136.706,75.96c0,8.018,5.292,9.923,9.8,9.923a17.057,17.057,0,0,0,6.345-.965l1-5.473a20.559,20.559,0,0,1-6.376,1.43c-6.093,0-5.025-4.543-5.025-4.543l11.706.035a40.752,40.752,0,0,0,.745-5.174c0-3.739-2.037-8.329-8.267-8.329C140.93,62.866,136.706,69.014,136.706,75.96Zm9.951-8.014c3.2,0,2.611,3.6,2.611,3.891h-6.3C142.969,71.464,143.564,67.946,146.657,67.946Z" transform="translate(-67.334 -57.228)" fill="#006"/>
        <path id="path13808" d="M202.723,81.417l1.016-6.185a13.664,13.664,0,0,1-4.7,1.4c-4.025,0-5.64-3.073-5.64-6.376,0-6.7,3.463-10.384,7.318-10.384a10.1,10.1,0,0,1,5.211,1.623l.926-6.01a11.286,11.286,0,0,0-5.687-1.99c-8.868-.035-13.943,6.139-13.943,16.813,0,7.075,3.758,11.889,10.529,11.889A26.236,26.236,0,0,0,202.723,81.417Z" transform="translate(-87.47 -53.492)" fill="#006"/>
        <path id="path13810" d="M74.842,63.012a19.594,19.594,0,0,0-6.873,1.25l-.824,4.888a17.913,17.913,0,0,1,6.183-1c2.113,0,3.659.238,3.659,1.955a3.637,3.637,0,0,1-.189,1.428s-1.667-.139-2.439-.139C68.82,71.394,64.3,73.488,64.3,79.8c0,4.976,3.382,6.117,5.478,6.117a6.992,6.992,0,0,0,5.68-2.535l-.046,2.1h5l2.229-15.625C82.635,63.225,76.851,63.012,74.842,63.012ZM75.707,75.7c.109.954-.247,5.465-3.664,5.465a2.067,2.067,0,0,1-2.22-2.142c0-1.554.844-3.418,5-3.418C75.793,75.6,75.544,75.674,75.707,75.7Z" transform="translate(-38.475 -57.286)" fill="#006"/>
        <path id="path13812" d="M99.4,85.826c1.278,0,8.584.325,8.584-7.214,0-7.049-6.763-5.656-6.763-8.489,0-1.409,1.1-1.852,3.118-1.852.8,0,3.877.254,3.877.254l.715-5.01a26.466,26.466,0,0,0-5.235-.446c-4.2,0-8.458,1.676-8.458,7.409,0,6.5,7.1,5.844,7.1,8.581,0,1.827-1.985,1.977-3.515,1.977a18.546,18.546,0,0,1-5.038-.865l-.757,4.959C93.166,85.172,94.636,85.826,99.4,85.826Z" transform="translate(-49.925 -57.309)" fill="#006"/>
        <path id="path13814" d="M280.179,55.455,279.154,63.1s-2.137-2.95-5.48-2.95c-6.29,0-9.532,6.269-9.532,13.47,0,4.649,2.312,9.206,7.036,9.206a7.094,7.094,0,0,0,5.283-2.37l-.25,2.024h5.52L286.065,55.5Zm-2.437,14.856c0,3-1.484,7-4.56,7-2.042,0-3-1.715-3-4.4,0-4.4,1.976-7.3,4.47-7.3C276.694,65.605,277.742,67.007,277.742,70.311Z" transform="translate(-118.124 -54.274)" fill="#006"/>
        <path id="path13816" d="M27.008,82.472,30.462,62.1l.508,20.371h3.909L42.171,62.1,38.94,82.472h5.809l4.473-27.018-9.227-.07L34.506,71.926l-.15-16.472H25.9L21.362,82.472h5.646Z" transform="translate(-21.362 -54.246)" fill="#006"/>
        <path id="path13818" d="M172.239,84.608c1.652-9.391,2.24-16.808,7.056-15.272A32.731,32.731,0,0,1,182.389,61s-.238-.354-1.727-.354c-2.541,0-5.934,5.157-5.934,5.157l.507-3.188h-5.284l-3.539,21.992h5.827Z" transform="translate(-79.173 -56.344)" fill="#006"/>
        <g id="use14699" transform="translate(116.592 5.726)">
          <path id="path13810_1_" d="M-619.538,63.012a19.6,19.6,0,0,0-6.874,1.25l-.823,4.888a17.919,17.919,0,0,1,6.183-1c2.113,0,3.659.238,3.659,1.955a3.648,3.648,0,0,1-.188,1.428s-1.667-.139-2.439-.139c-5.54,0-10.061,2.094-10.061,8.408,0,4.976,3.381,6.117,5.477,6.117a6.991,6.991,0,0,0,5.679-2.535l-.047,2.1h5l2.228-15.625C-611.747,63.225-617.53,63.012-619.538,63.012Zm.864,12.688c.108.954-.247,5.465-3.664,5.465a2.067,2.067,0,0,1-2.22-2.142c0-1.554.843-3.418,5-3.418C-618.589,75.6-618.837,75.674-618.674,75.7Z" transform="translate(630.083 -63.012)" fill="#006"/>
        </g>
        <path id="use14701" d="M251.4,85.912c.907-6.909,2.586-16.609,7.055-15.272.691-3.635.025-3.625-1.463-3.625a26.508,26.508,0,0,0-3.106.093l.508-3.188h-5.284l-3.539,21.993H251.4Z" transform="translate(-110.725 -57.648)" fill="#006"/>
      </g>
      <g id="g10289" transform="translate(1.655)">
        <path id="path4157" d="M116.619,96.508l.71-4.823c-.388,0-.959.166-1.462.166-1.975,0-2.193-1.05-2.067-1.827l1.6-9.841h3l.725-5.335h-2.83l.576-3.318h-5.674c-.125.125-3.349,18.658-3.349,20.915,0,3.341,1.876,4.829,4.521,4.8A14.923,14.923,0,0,0,116.619,96.508Z" transform="translate(-49.22 -69.178)" fill="#fff"/>
        <path id="path4155" d="M125.423,89.092c0,8.018,5.293,9.924,9.8,9.924,4.162,0,5.993-.93,5.993-.93l1-5.472a17.668,17.668,0,0,1-6.025,1.395c-6.093,0-5.026-4.543-5.026-4.543H142.7a40.811,40.811,0,0,0,.745-5.175c0-3.739-1.861-8.294-8.091-8.294C129.646,76,125.423,82.145,125.423,89.092Zm9.95-8.014c3.2,0,2.611,3.6,2.611,3.89h-6.3C131.685,84.6,132.281,81.078,135.373,81.078Z" transform="translate(-56.226 -70.957)" fill="#fff"/>
        <path id="path4151" d="M191.65,94.946l1.015-6.186a13.649,13.649,0,0,1-4.695,1.4c-4.025,0-5.639-3.073-5.639-6.375,0-6.7,3.463-10.383,7.318-10.383a10.1,10.1,0,0,1,5.211,1.623l.926-6.01a20.374,20.374,0,0,0-6.39-1.392c-6.55,0-12.923,5.682-12.923,16.354,0,7.077,3.441,11.75,10.212,11.75A26.165,26.165,0,0,0,191.65,94.946Z" transform="translate(-76.573 -67.618)" fill="#fff"/>
        <path id="path4149" d="M63.559,76.143a19.6,19.6,0,0,0-6.873,1.25l-.823,4.888a17.911,17.911,0,0,1,6.183-1c2.113,0,3.659.238,3.659,1.955a3.627,3.627,0,0,1-.189,1.428s-1.667-.14-2.438-.14c-4.907,0-10.062,2.094-10.062,8.408,0,4.975,3.382,6.117,5.478,6.117a7.383,7.383,0,0,0,5.821-2.605l-.187,2.168h5l2.229-15.626C71.351,76.357,65.568,76.143,63.559,76.143Zm1.216,12.723c.108.954-.6,5.429-4.015,5.429a2.067,2.067,0,0,1-2.221-2.142c0-1.553.844-3.417,5-3.417A3.61,3.61,0,0,1,64.775,88.866Z" transform="translate(-27.366 -71.016)" fill="#fff"/>
        <path id="path4145" d="M88.112,98.958c1.278,0,8.584.325,8.584-7.214,0-7.048-6.763-5.656-6.763-8.487,0-1.41,1.1-1.854,3.117-1.854.8,0,3.877.254,3.877.254l.716-5.01a26.468,26.468,0,0,0-5.235-.446c-4.2,0-8.458,1.676-8.458,7.409,0,6.5,7.1,5.844,7.1,8.581,0,1.827-1.985,1.975-3.514,1.975A18.527,18.527,0,0,1,82.5,93.3l-.757,4.959C81.882,98.3,83.352,98.958,88.112,98.958Z" transform="translate(-38.817 -71.039)" fill="#fff"/>
        <path id="path4139" d="M269.093,68.662l-1.224,7.594s-2.136-2.95-5.479-2.95c-5.2,0-9.532,6.268-9.532,13.47,0,4.649,2.311,9.2,7.036,9.2a7.1,7.1,0,0,0,5.283-2.37l-.25,2.024h5.519l4.335-26.982Zm-2.635,14.807c0,3-1.484,7-4.56,7-2.042,0-3-1.714-3-4.4,0-4.4,1.976-7.3,4.469-7.3C265.411,78.763,266.458,80.166,266.458,83.469Z" transform="translate(-107.016 -68.031)" fill="#fff"/>
        <path id="path4133" d="M15.841,95.65,19.295,75.28,19.8,95.65h3.909L31,75.28,27.773,95.65h5.809l4.473-27.018H29.073L23.479,85.209l-.291-16.577h-8.28L10.37,95.65Z" transform="translate(-10.37 -68.022)" fill="#fff"/>
        <path id="path4131" d="M160.957,98.855c1.652-9.392,1.958-17.018,5.9-15.622a21.83,21.83,0,0,1,2.109-6.58,5.983,5.983,0,0,0-1.094-.074c-2.541,0-4.424,3.472-4.424,3.472l.506-3.188h-5.283L155.13,98.855Z" transform="translate(-68.066 -71.19)" fill="#fff"/>
        <g id="use8523" transform="translate(117.625 5.127)">
          <path id="path4149_1_" d="M-630.519,76.143a19.6,19.6,0,0,0-6.873,1.25l-.823,4.888a17.911,17.911,0,0,1,6.183-1c2.113,0,3.657.238,3.657,1.955a3.648,3.648,0,0,1-.188,1.428s-1.667-.14-2.439-.14c-4.907,0-10.061,2.094-10.061,8.408,0,4.975,3.381,6.117,5.477,6.117a7.38,7.38,0,0,0,5.82-2.605l-.186,2.168h5l2.228-15.626C-622.726,76.357-628.51,76.143-630.519,76.143Zm1.217,12.723c.108.954-.6,5.429-4.016,5.429a2.066,2.066,0,0,1-2.219-2.142c0-1.553.844-3.417,5-3.417A3.632,3.632,0,0,1-629.3,88.866Z" transform="translate(641.063 -76.143)" fill="#fff"/>
        </g>
        <g id="use8525" transform="translate(134.702 5.389)">
          <path id="path4131_1_" d="M-202.124,98.855c1.652-9.392,1.958-17.018,5.9-15.622a21.874,21.874,0,0,1,2.11-6.58,5.984,5.984,0,0,0-1.094-.074c-2.541,0-4.424,3.472-4.424,3.472l.506-3.188h-5.283l-3.539,21.993Z" transform="translate(207.95 -76.579)" fill="#fff"/>
        </g>
        <path id="text9407" d="M287.962,107.975a1.739,1.739,0,0,1,.846.224,1.559,1.559,0,0,1,.645.637,1.726,1.726,0,0,1,0,1.719,1.6,1.6,0,0,1-.637.639,1.741,1.741,0,0,1-1.716,0,1.611,1.611,0,0,1-.636-.639,1.72,1.72,0,0,1,0-1.719,1.582,1.582,0,0,1,.645-.637,1.763,1.763,0,0,1,.849-.224m0,.284a1.46,1.46,0,0,0-.707.188,1.313,1.313,0,0,0-.538.532,1.439,1.439,0,0,0-.005,1.433,1.371,1.371,0,0,0,.536.533,1.45,1.45,0,0,0,1.429,0,1.364,1.364,0,0,0,.532-.533,1.439,1.439,0,0,0,0-1.433,1.3,1.3,0,0,0-.538-.532,1.448,1.448,0,0,0-.7-.188m-.755,2.391V108.8h.638a1.5,1.5,0,0,1,.472.053.455.455,0,0,1,.233.179.471.471,0,0,1,.088.271.491.491,0,0,1-.147.354.562.562,0,0,1-.383.168.569.569,0,0,1,.158.1,2.2,2.2,0,0,1,.274.367l.227.363H288.4l-.163-.292a1.5,1.5,0,0,0-.313-.432.384.384,0,0,0-.24-.064h-.175v.788h-.3m.3-1.043h.363a.579.579,0,0,0,.354-.078.251.251,0,0,0,.1-.206.243.243,0,0,0-.045-.146.275.275,0,0,0-.128-.1.943.943,0,0,0-.3-.032h-.34v.559" transform="translate(-120.32 -83.703)" fill="#fff"/>
      </g>
    </g>
  </g>
</svg>
